<?xml version="1.0" encoding="utf-8"?>
<!-- Generator: Adobe Illustrator 26.4.1, SVG Export Plug-In . SVG Version: 6.00 Build 0)  -->
<svg version="1.1" id="Layer_1" xmlns="http://www.w3.org/2000/svg" xmlns:xlink="http://www.w3.org/1999/xlink" x="0px" y="0px"
	 viewBox="0 0 2048 2048" style="enable-background:new 0 0 2048 2048;" xml:space="preserve">
<style type="text/css">
	.st0{fill-rule:evenodd;clip-rule:evenodd;fill:#FFCA28;}
	.st1{fill:#FFFFFE;}
</style>
<g id="Layer_x0020_1">
	<path class="st0" d="M256,0h1536c141.4,0,256,114.6,256,256v1536c0,141.4-114.6,256-256,256H256c-141.4,0-256-114.6-256-256V256
		C0,114.6,114.6,0,256,0z"/>
	<path class="st1" d="M1170.8,669.1c47.2,19.5,89.5,48,124.7,83.2c35.3,35.3,63.8,77.6,83.3,124.8c18.8,45.4,29.2,95,29.2,146.8
		s-10.4,101.4-29.2,146.8c-19.6,47.2-48,89.6-83.3,124.8c-35.2,35.2-77.5,63.7-124.7,83.2c-45.4,18.8-95,29.1-146.8,29.1
		c-51.8,0-101.4-10.4-146.8-29.1c-47.2-19.5-89.5-48-124.7-83.2c-35.3-35.3-63.8-77.6-83.3-124.8c-18.8-45.4-29.2-95-29.2-146.8
		c0-106.1,43-202.2,112.5-271.7C787.7,717,830,688.5,877.2,669c45.4-18.8,95-29.1,146.8-29.1C1075.8,640,1125.4,650.3,1170.8,669.1
		L1170.8,669.1z"/>
	<polygon class="st1" points="570.2,1058.9 256,1058.9 256,989.1 570.2,989.1 	"/>
	<polygon class="st1" points="1058.9,1477.8 1058.9,1792 989.1,1792 989.1,1477.8 	"/>
	<polygon class="st1" points="727.8,1369.6 505.6,1591.7 456.3,1542.4 678.4,1320.2 	"/>
	<polygon class="st1" points="678.4,727.8 456.3,505.6 505.6,456.3 727.8,678.4 	"/>
	<polygon class="st1" points="1792,1058.9 1477.8,1058.9 1477.8,989.1 1792,989.1 	"/>
	<polygon class="st1" points="1058.9,256 1058.9,570.2 989.1,570.2 989.1,256 	"/>
	<polygon class="st1" points="1591.7,505.6 1369.6,727.8 1320.2,678.4 1542.4,456.3 	"/>
	<polygon class="st1" points="1542.4,1591.7 1320.2,1369.6 1369.6,1320.2 1591.8,1542.4 	"/>
</g>
</svg>
