<?xml version="1.0" encoding="utf-8"?>
<!-- Generator: Adobe Illustrator 26.4.1, SVG Export Plug-In . SVG Version: 6.00 Build 0)  -->
<svg version="1.1" id="Layer_1" xmlns="http://www.w3.org/2000/svg" xmlns:xlink="http://www.w3.org/1999/xlink" x="0px" y="0px"
	 viewBox="0 0 2048 2048" style="enable-background:new 0 0 2048 2048;" xml:space="preserve">
<style type="text/css">
	.st0{fill:#FFFFFE;}
	.st1{fill-rule:evenodd;clip-rule:evenodd;fill:#63E4EA;}
</style>
<g id="Layer_x0020_1">
	<path class="st0" d="M1076.9,640c70.9,0,136.3,23.5,188.5,62.9c2.1,1.6,4.2,3.2,6.3,4.9c-20.6,7.5-40.5,17-59.4,28.4
		c-34.7,21-65.3,48.2-90.2,80.1c-3.9-1.4-7.9-2.7-11.9-4c-24.5-7.5-49.9-11.2-75.5-11.2c-63,0-123.5,22.7-170.7,64.4
		c-31.8,28.1-56.1,63.6-70.3,103.3c-61.1,4.1-118.8,29.6-162.9,72.7c-48.2,47.2-75.5,111-75.5,178.6c0,58.2,20.3,113.7,56.8,158.1
		H475.4c-23.7,0-19.1-0.9-41.8-6.2c-42.9-10-81.1-31.8-110.9-61.7c-40.5-40.7-65.4-96.2-65.4-157.4c0-62.3,25.8-118.7,67.5-159.6
		c41.5-40.6,98.7-65.7,161.8-65.7c2.2,0,4.4,0,6.6,0.1c11.1-44.6,35.8-83.9,69.4-113.6c40.7-35.9,94.4-57.8,153.2-57.8
		c23.5,0,46.3,3.5,67.8,10.1c11.4,3.5,22.5,7.8,33.2,13c25.1-38.2,58.6-70.5,98-94.3C962.1,656.5,1017.6,640,1076.9,640L1076.9,640z
		"/>
	<path class="st0" d="M1387,719.6c69.2,0,133,22.9,184,61.4c49.2,37.2,86.4,89,104.9,148.9c33.9,25.2,62,57.6,82,95
		c21,39.4,32.9,84,32.9,131.4c0,78.5-32.5,149.5-85,200.9c-44.9,44-103.1,79.1-169.6,82.9H800c-23.1,0-18.7-0.9-40.8-6
		c-41.9-9.7-79.2-31-108.2-60.2c-39.5-39.7-63.8-93.9-63.8-153.6c0-60.8,25.2-115.9,65.9-155.7c40.5-39.6,96.3-64.2,157.8-64.2
		c2.1,0,4.3,0,6.5,0.1c10.9-43.5,34.9-81.9,67.7-110.9c39.7-35.1,92.1-56.4,149.5-56.4c23,0,45.2,3.4,66.2,9.8
		c11.2,3.4,22,7.7,32.4,12.7c24.5-37.2,57.2-68.8,95.7-92.1C1274.9,735.7,1329.1,719.6,1387,719.6L1387,719.6z"/>
</g>
<g id="Layer_x0020_1_0">
	<path class="st1" d="M256,0h1536c141.4,0,256,114.6,256,256v1536c0,141.4-114.6,256-256,256H256c-141.4,0-256-114.6-256-256V256
		C0,114.6,114.6,0,256,0z"/>
	<path class="st0" d="M1076.9,640c70.9,0,136.3,23.5,188.5,62.9c2.1,1.6,4.2,3.2,6.3,4.9c-20.6,7.5-40.5,17-59.4,28.4
		c-34.7,21-65.3,48.2-90.2,80.1c-3.9-1.4-7.9-2.7-11.9-4c-24.5-7.5-49.9-11.2-75.5-11.2c-63,0-123.5,22.7-170.7,64.4
		c-31.8,28.1-56.1,63.6-70.3,103.3c-61.1,4.1-118.8,29.6-162.9,72.7c-48.2,47.2-75.5,111-75.5,178.6c0,58.2,20.3,113.7,56.8,158.1
		H475.4c-23.7,0-19.1-0.9-41.8-6.2c-42.9-10-81.1-31.8-110.9-61.7c-40.5-40.7-65.4-96.2-65.4-157.4c0-62.3,25.8-118.7,67.5-159.6
		c41.5-40.6,98.7-65.7,161.8-65.7c2.2,0,4.4,0,6.6,0.1c11.1-44.6,35.8-83.9,69.4-113.6c40.7-35.9,94.4-57.8,153.2-57.8
		c23.5,0,46.3,3.5,67.8,10.1c11.4,3.5,22.5,7.8,33.2,13c25.1-38.2,58.6-70.5,98-94.3C962.1,656.5,1017.6,640,1076.9,640L1076.9,640z
		"/>
	<path class="st0" d="M1387,719.6c69.2,0,133,22.9,184,61.4c49.2,37.2,86.4,89,104.9,148.9c33.9,25.2,62,57.6,82,95
		c21,39.4,32.9,84,32.9,131.4c0,78.5-32.5,149.5-85,200.9c-44.9,44-103.1,79.1-169.6,82.9H800c-23.1,0-18.7-0.9-40.8-6
		c-41.9-9.7-79.2-31-108.2-60.2c-39.5-39.7-63.8-93.9-63.8-153.6c0-60.8,25.2-115.9,65.9-155.7c40.5-39.6,96.3-64.2,157.8-64.2
		c2.1,0,4.3,0,6.5,0.1c10.9-43.5,34.9-81.9,67.7-110.9c39.7-35.1,92.1-56.4,149.5-56.4c23,0,45.2,3.4,66.2,9.8
		c11.2,3.4,22,7.7,32.4,12.7c24.5-37.2,57.2-68.8,95.7-92.1C1274.9,735.7,1329.1,719.6,1387,719.6L1387,719.6z"/>
</g>
</svg>
