<?xml version="1.0" encoding="utf-8"?>
<!-- Generator: Adobe Illustrator 26.4.1, SVG Export Plug-In . SVG Version: 6.00 Build 0)  -->
<svg version="1.1" id="Layer_1" xmlns="http://www.w3.org/2000/svg" xmlns:xlink="http://www.w3.org/1999/xlink" x="0px" y="0px"
	 viewBox="0 0 2048 2048" style="enable-background:new 0 0 2048 2048;" xml:space="preserve">
<style type="text/css">
	.st0{fill-rule:evenodd;clip-rule:evenodd;fill:#6464FF;}
	.st1{fill:#FFFFFE;}
</style>
<g id="Layer_x0020_1">
	<path class="st0" d="M256,0h1536c141.4,0,256,114.6,256,256v1536c0,141.4-114.6,256-256,256H256c-141.4,0-256-114.6-256-256V256
		C0,114.6,114.6,0,256,0z"/>
	<path class="st1" d="M395.6,605.1c-4.9-2.1-10.4-3.2-16.1-3.2c-5.7,0-11.1,1.1-15.9,3.2c-4.7,2-9,5-12.8,8.6l0,0
		c-1.5,1.5-2.9,2.9-4,4.4c-1.1,1.4-2.2,3.1-3.4,5.1l0,0l-56,94.5l-0.1,0.2l-4.8,8.3l-0.7,1.3c-3.8,7.4-6.8,15.3-8.9,23.6
		c-2,7.8-3,16.2-3.1,25v0.1c0,14.7,3.1,28.7,8.5,41.4c5.7,13.3,13.8,25.2,23.9,35l1.2,1.2l0.1,0.1l0,0c9.9,9.4,21.6,17,34.3,22.2
		c12.7,5.2,26.8,8,41.6,8.1h0.1c14.8,0,28.9-2.8,41.7-8c13.5-5.4,25.6-13.3,35.7-23.2c10.2-9.9,18.4-21.9,24.1-35.2
		c5.4-12.8,8.4-26.8,8.4-41.5c0-8.8-1-17.2-3-25.1c-2.1-8.5-5.2-16.5-9-23.9l-0.7-1.1l-4.6-8l-0.1-0.4l-55.9-94.5l-0.1,0
		c-1.1-1.9-2.3-3.6-3.5-5.2c-1.8-2.3-3-3.7-3.9-4.5l0,0C404.8,610.1,400.4,607.2,395.6,605.1L395.6,605.1z"/>
	<path class="st1" d="M992.9,259.2c-4.9-2.1-10.4-3.2-16-3.2c-5.7,0-11.1,1.1-15.9,3.2c-4.7,2-9,5-12.7,8.6l0,0
		c-1.5,1.5-2.9,2.9-4,4.4c-1.1,1.4-2.2,3.1-3.4,5.1l0,0L885,371.7l-0.1,0.2l-4.8,8.3l-0.7,1.3c-3.8,7.4-6.8,15.3-8.9,23.6
		c-1.9,7.8-3,16.2-3.1,24.9v0.1c0,14.7,3,28.6,8.4,41.3c5.6,13.3,13.8,25.2,23.8,35l1.2,1.2l0.1,0.1l0,0
		c9.9,9.4,21.5,16.9,34.2,22.1c12.6,5.2,26.7,8,41.5,8.1h0.1c14.8,0,28.8-2.8,41.6-8c13.4-5.4,25.5-13.3,35.6-23.2
		c10.2-9.9,18.4-21.8,24-35.1c5.4-12.7,8.4-26.7,8.4-41.4c0-8.8-1-17.2-3-25.1c-2.1-8.5-5.1-16.5-9-23.9l-0.7-1.1l-4.6-8l-0.1-0.4
		l-55.7-94.5l-0.1,0c-1.1-1.9-2.3-3.6-3.5-5.2c-1.8-2.3-3-3.7-3.9-4.5l0,0C1002,264.2,997.6,261.2,992.9,259.2L992.9,259.2z"/>
	<path class="st1" d="M694.6,290.9c-5.5-2.3-11.7-3.6-18-3.5c-6.4-0.1-12.5,1.2-17.9,3.5v0.1c-5.5,2.3-10.5,5.7-14.7,9.6l0,0
		c-1.6,1.5-3.2,3.2-4.8,5.2c-1.5,1.8-2.9,3.8-4.2,6.1l0,0l-89.7,148.6l-0.1,0.2l-7.7,13.1l-0.7,1.4c-5.6,10.6-9.9,21.7-12.9,33.2
		c-2.8,11-4.3,22.8-4.4,35.3v0.1c0.1,20.7,4.4,40.4,12.2,58.4c8.1,18.7,19.8,35.4,34.2,49.3l0.3,0.3c14.4,13.8,31.6,24.9,50.7,32.5
		c18.3,7.3,38.4,11.4,59.4,11.5h0.1c21.2,0,41.3-3.9,59.6-11.1c19.2-7.6,36.5-18.7,51-32.6l0.1-0.1c14.5-13.9,26.2-30.6,34.3-49.3
		c7.8-18,12.1-37.8,12.1-58.5c0-12.4-1.4-24.2-4.3-35.4c-3-11.9-7.4-23.2-13-33.7l-0.7-1.1l-7.4-12.6l-0.1-0.2l-89.5-148.8l0,0
		c-1.4-2.4-2.8-4.5-4.2-6.2c-1.6-2-3.2-3.7-4.8-5.2l-0.1,0.1C705,296.5,699.9,293.2,694.6,290.9L694.6,290.9z"/>
	<path class="st1" d="M395.5,259.2c-4.9-2.1-10.4-3.2-16.1-3.2c-5.7,0-11.1,1.1-15.9,3.2c-4.7,2-9,5-12.7,8.6l0,0
		c-1.5,1.5-2.9,2.9-4,4.4c-1.1,1.4-2.2,3.1-3.4,5.1l0,0l-56,94.6l-0.1,0.2l-4.8,8.3l-0.7,1.4c-3.8,7.4-6.8,15.3-8.9,23.6
		c-2,7.8-3,16.2-3.1,25v0.1c0,14.7,3.1,28.7,8.5,41.4c5.7,13.3,13.8,25.2,23.8,35.1l1.2,1.2l0.1,0.1l0,0c9.9,9.4,21.5,17,34.3,22.2
		c12.7,5.2,26.7,8,41.6,8.1h0.1c14.8,0,28.9-2.8,41.7-8c13.5-5.4,25.5-13.4,35.7-23.2c10.2-9.9,18.4-21.9,24.1-35.2
		c5.4-12.8,8.4-26.8,8.4-41.5c0-8.8-1-17.2-3-25.2c-2.1-8.5-5.2-16.5-9-23.9l-0.7-1.1l-4.6-8l-0.1-0.4l-55.8-94.7l-0.1,0
		c-1.1-1.9-2.3-3.6-3.5-5.2c-1.8-2.3-3-3.7-3.9-4.5l0,0C404.7,264.2,400.3,261.2,395.5,259.2L395.5,259.2z"/>
	<path class="st1" d="M1227,1099.5c-20.7,14.5-36.8,35.2-45.9,59.2h-58.6c-9.1-24.1-25.2-44.7-45.9-59.2
		c-20-14.1-44.1-22.4-70.1-22.6c-26.9-0.1-51.8,8.2-72.3,22.5c-21.1,14.7-37.4,35.8-46.4,60.6l-59.1-0.5
		c-8.6-24.9-24.6-46.3-45.4-61.3c-20.3-14.7-45-23.4-71.7-23.6c-22.2-0.1-43,5.5-61,15.5c-18.8,10.4-34.7,25.6-46,43.9l-57.5-21.6
		c6.4-38.2,16.2-75.2,29.2-110.6c13.2-36,29.7-70.6,49.3-103.4l0.4-0.6l16.2-25.7l0.5-0.7c56-83.9,132.1-153.1,221.2-200.9
		c86-46.1,184.1-72.2,288.1-72.1c104.1-0.1,202.2,26,288.1,72.1c89.1,47.8,165.2,117,221.2,200.9l0.5,0.7l16.2,25.7l0.4,0.6
		c19.5,32.8,36.1,67.4,49.3,103.4c12.9,35.3,22.8,72.3,29.1,110.7l-57.5,21.5c-11.4-18.3-27.2-33.5-46-43.9
		c-18-10-38.8-15.6-61-15.5c-26.7,0.3-51.5,9-71.7,23.6c-20.8,15.1-36.8,36.4-45.4,61.3l-59.1,0.5c-9-24.8-25.3-45.9-46.4-60.6
		c-20.4-14.3-45.4-22.6-72.3-22.5C1271.1,1077.1,1247,1085.4,1227,1099.5L1227,1099.5z"/>
	<path class="st1" d="M1072.5,1707.9c0.5,4.6,2.4,9.1,5.6,12.8c3.1,3.7,7.2,6.2,11.7,7.5c4.5,1.3,9.5,1.3,14.1-0.2
		c4.5-1.4,8.4-4.2,11.3-7.8c2.6-3.3,4-7.4,4.7-11.6l0-1109.2l32.1-70.7l31.9,70.6l0.2,1113.1c-1.6,17.5-9.4,33.8-19.8,46.9
		c-10.5,13.2-24.8,23.4-41.5,28.7c-16.7,5.3-34.1,5.3-50.2,0.7c-16.2-4.7-31-14-42.4-27.4c-11.3-13.4-18.1-29.5-20.1-46.2
		c-1.2-10.7-0.5-21.6,2.3-32.2c6.1-24.3,38.5-36,55.2-20.4C1086,1679.7,1068.4,1691.4,1072.5,1707.9L1072.5,1707.9z"/>
</g>
</svg>
