<?xml version="1.0" encoding="utf-8"?>
<!-- Generator: Adobe Illustrator 26.4.1, SVG Export Plug-In . SVG Version: 6.00 Build 0)  -->
<svg version="1.1" id="Layer_1" xmlns="http://www.w3.org/2000/svg" xmlns:xlink="http://www.w3.org/1999/xlink" x="0px" y="0px"
	 viewBox="0 0 2048 2048" style="enable-background:new 0 0 2048 2048;" xml:space="preserve">
<style type="text/css">
	.st0{fill:none;}
	.st1{fill-rule:evenodd;clip-rule:evenodd;fill:#7E57C2;}
	.st2{fill:#FFFFFE;}
	.st3{fill-rule:evenodd;clip-rule:evenodd;fill:#FFFFFE;}
</style>
<g id="Layer_x0020_1">
	<rect y="0" class="st0" width="2048" height="2048"/>
	<path class="st1" d="M256,0h1536c141.4,0,256,114.6,256,256v1536c0,141.4-114.6,256-256,256H256c-141.4,0-256-114.6-256-256V256
		C0,114.6,114.6,0,256,0z"/>
	<g id="_351028856">
		<path id="_351030752" class="st2" d="M1076.9,320c70.9,0,136.3,23.5,188.5,62.9c2.1,1.6,4.2,3.2,6.3,4.9
			c-20.6,7.5-40.5,17-59.4,28.4c-34.7,21-65.3,48.2-90.2,80.1c-3.9-1.4-7.9-2.7-11.9-4c-24.5-7.5-49.9-11.2-75.5-11.2
			c-63,0-123.5,22.7-170.7,64.4c-31.8,28.1-56.1,63.6-70.3,103.3c-61.1,4.1-118.8,29.6-162.9,72.7c-48.2,47.2-75.5,111-75.5,178.6
			c0,58.2,20.3,113.7,56.8,158.1H475.4c-23.7,0-19.1-0.9-41.8-6.2c-42.9-10-81.1-31.8-110.9-61.7c-40.5-40.7-65.4-96.2-65.4-157.4
			c0-62.3,25.8-118.7,67.5-159.6c41.5-40.6,98.7-65.7,161.8-65.7c2.2,0,4.4,0,6.6,0.1c11.1-44.6,35.8-83.9,69.4-113.6
			c40.7-35.9,94.4-57.8,153.2-57.8c23.5,0,46.3,3.5,67.8,10.1c11.4,3.5,22.5,7.8,33.2,13c25.1-38.2,58.6-70.5,98-94.3
			C962.1,336.5,1017.6,320,1076.9,320L1076.9,320z"/>
		<path id="_351028736" class="st2" d="M1387,399.6c69.2,0,133,22.9,184,61.4c49.2,37.2,86.4,89,104.9,148.9
			c33.9,25.2,62,57.6,82,95c21,39.4,32.9,84,32.9,131.4c0,78.5-32.5,149.5-85,200.9c-44.9,44-103.1,79.1-169.6,82.9H800
			c-23.1,0-18.7-0.9-40.8-6c-41.9-9.7-79.2-31-108.2-60.2c-39.5-39.7-63.8-93.9-63.8-153.6c0-60.8,25.2-115.9,65.9-155.7
			c40.5-39.6,96.3-64.2,157.8-64.2c2.1,0,4.3,0,6.5,0.1c10.9-43.5,34.9-81.9,67.7-110.9c39.7-35.1,92.1-56.4,149.5-56.4
			c23,0,45.2,3.4,66.2,9.8c11.2,3.4,22,7.7,32.4,12.7c24.5-37.2,57.2-68.8,95.7-92.1C1274.9,415.7,1329.1,399.6,1387,399.6
			L1387,399.6z"/>
	</g>
	<path class="st3" d="M508.4,1412.7l4.7,59.9l-45.7-36.3v43l62,35.8c4.4,2.5,5.8,8.2,3.3,12.5c-2.5,4.4-8.1,5.9-12.5,3.4l-52.8-30.6
		v25.5l26.9,15.5c4.4,2.5,5.8,8.1,3.3,12.5c-2.5,4.4-8.2,5.9-12.5,3.4l-17.7-10.3v35.3c0,5-4,9.1-9,9.1h-0.1h0h0h-0.1
		c-5,0-9-4.2-9-9.1v-35.3l-17.7,10.3c-4.4,2.5-10,1-12.5-3.4c-2.5-4.4-1-10,3.3-12.5L449,1526v-25.5l-52.8,30.6
		c-4.4,2.5-10,1-12.5-3.4c-2.5-4.3-1-10,3.3-12.5l62-35.8v-43l-45.7,36.3l4.7-59.9l-41.1,23.7v72.8c0,5-4.1,9.1-9.1,9.1
		c-5,0-9.2-4.1-9.2-9.1l0.1-62.3l-18.3,11v33c0,5-4.1,9.1-9.1,9.1c-5,0-9.2-4.1-9.2-9.1v-22.4l-32.1,18.1c-1.4,0.8-3,1.2-4.6,1.2
		c-3.3,0-6.3-1.8-7.9-4.6c-2.5-4.4-1-10,3.4-12.5l32.4-18.7L282,1440c-4.4-2.5-5.9-8.1-3.3-12.5c2.5-4.4,8.1-5.9,12.4-3.4l30.4,17.4
		l22.1-12.7l-55.5-33c-4.4-2.5-5.9-8.1-3.4-12.5c2.5-4.4,8.1-6,12.5-3.4l64.7,38.3l37-21.3l-53.7-23.7v-2.2l53.7-23.7l-37-21.3
		l-64.7,38.3c-4.4,2.5-10,1-12.5-3.4c-2.5-4.4-1-10,3.4-12.5l55.5-33l-22.1-12.7l-30.4,17.4c-4.4,2.5-9.9,1-12.4-3.4
		c-2.5-4.4-1.1-10,3.3-12.5l21.2-12.1l-32.4-18.7c-4.4-2.5-5.9-8.1-3.4-12.5c1.6-2.8,4.7-4.6,7.9-4.6c1.6,0,3.2,0.4,4.6,1.2
		l32.1,18.1v-22.4c0-5.1,4.1-9.1,9.2-9.1c5,0,9.1,4.1,9.1,9.1v33l18.3,11l-0.1-62.3c0-5.1,4.2-9.1,9.2-9.1c5,0,9.1,4.1,9.1,9.1v72.8
		l41.1,23.7l-4.7-59.9l45.7,36.3v-43l-62-35.8c-4.4-2.5-5.8-8.2-3.3-12.5c2.5-4.4,8.1-5.9,12.5-3.4l52.8,30.6v-25.5l-26.9-15.5
		c-4.4-2.5-5.8-8.1-3.3-12.5c2.5-4.4,8.2-5.9,12.5-3.4l17.7,10.3v-35.3c0-5,4-9.1,9-9.1h0.1h0h0h0.1c5,0,9,4.2,9,9.1v35.3l17.7-10.3
		c4.4-2.5,10-1,12.5,3.4c2.5,4.4,1,10-3.3,12.5l-26.9,15.5v25.5l52.8-30.6c4.4-2.5,10-1,12.5,3.4c2.5,4.3,1,10-3.3,12.5l-62,35.8v43
		l45.7-36.3l-4.7,59.9l41.1-23.7v-72.8c0-5,4.1-9.1,9.1-9.1c5,0,9.2,4.1,9.2,9.1l-0.1,62.3l18.3-11v-33c0-5,4.1-9.1,9.1-9.1
		c5,0,9.2,4.1,9.2,9.1v22.4l32.1-18.1c1.4-0.8,3-1.2,4.6-1.2c3.3,0,6.3,1.8,7.9,4.6c2.5,4.4,1,10-3.4,12.5l-32.4,18.7l21.2,12.1
		c4.4,2.5,5.9,8.1,3.3,12.5c-2.5,4.4-8.1,5.9-12.4,3.4l-30.4-17.4l-22.1,12.7l55.5,33c4.4,2.5,5.9,8.1,3.4,12.5
		c-2.5,4.4-8.1,6-12.5,3.4l-64.7-38.3l-37,21.3l53.7,23.7v2.2l-53.7,23.7l37,21.3l64.7-38.3c4.4-2.5,10-1,12.5,3.4
		c2.5,4.4,1,10-3.4,12.5l-55.5,33l22.1,12.7l30.4-17.4c4.4-2.5,9.9-1,12.4,3.4c2.5,4.4,1.1,10-3.3,12.5l-21.2,12.1l32.4,18.7
		c4.4,2.5,5.9,8.1,3.4,12.5c-1.6,2.8-4.7,4.6-7.9,4.6c-1.6,0-3.2-0.4-4.6-1.2l-32.1-18.1v22.4c0,5.1-4.1,9.1-9.2,9.1
		c-5,0-9.1-4.1-9.1-9.1v-33l-18.3-11l0.1,62.3c0,5.1-4.2,9.1-9.2,9.1c-5,0-9.1-4.1-9.1-9.1v-72.8L508.4,1412.7L508.4,1412.7z"/>
	<path class="st3" d="M1129.9,1632.3l4.7,59.9l-45.7-36.3v43l62,35.8c4.4,2.5,5.8,8.2,3.3,12.5c-2.5,4.4-8.1,5.9-12.5,3.4
		l-52.8-30.6v25.5l26.9,15.5c4.4,2.5,5.8,8.1,3.3,12.5c-2.5,4.4-8.2,5.9-12.5,3.4l-17.7-10.3v35.3c0,5-4,9.1-9,9.1h-0.1h0h0h-0.1
		c-5,0-9-4.2-9-9.1v-35.3l-17.7,10.3c-4.4,2.5-10,1-12.5-3.4c-2.5-4.4-1-10,3.3-12.5l26.9-15.5v-25.5l-52.8,30.6
		c-4.4,2.5-10,1-12.5-3.4c-2.5-4.3-1-10,3.3-12.5l62-35.8v-43l-45.7,36.3l4.7-59.9l-41.1,23.7v72.8c0,5-4.1,9.1-9.1,9.1
		c-5,0-9.2-4.1-9.2-9.1l0.1-62.3l-18.3,11v33c0,5-4.1,9.1-9.1,9.1c-5,0-9.2-4.1-9.2-9.1v-22.4l-32.1,18.1c-1.4,0.8-3,1.2-4.6,1.2
		c-3.3,0-6.3-1.8-7.9-4.6c-2.5-4.4-1-10,3.4-12.5l32.4-18.7l-21.2-12.1c-4.4-2.5-5.9-8.1-3.3-12.5c2.5-4.4,8.1-5.9,12.4-3.4
		L943,1661l22.1-12.7l-55.5-33c-4.4-2.5-5.9-8.1-3.4-12.5c2.5-4.4,8.1-6,12.5-3.4l64.7,38.3l37-21.3l-53.7-23.7v-2.2l53.7-23.7
		l-37-21.3l-64.7,38.3c-4.4,2.5-10,1-12.5-3.4c-2.5-4.4-1-10,3.4-12.5l55.5-33l-22.1-12.7l-30.4,17.4c-4.4,2.5-9.9,1-12.4-3.4
		c-2.5-4.4-1.1-10,3.3-12.5l21.2-12.1l-32.4-18.7c-4.4-2.5-5.9-8.1-3.4-12.5c1.6-2.8,4.7-4.6,7.9-4.6c1.6,0,3.2,0.4,4.6,1.2
		l32.1,18.1v-22.4c0-5.1,4.1-9.1,9.2-9.1c5,0,9.1,4.1,9.1,9.1v33l18.3,11l-0.1-62.3c0-5.1,4.2-9.1,9.2-9.1c5,0,9.1,4.1,9.1,9.1v72.8
		l41.1,23.7l-4.7-59.9l45.7,36.3v-43l-62-35.8c-4.4-2.5-5.8-8.2-3.3-12.5c2.5-4.4,8.1-5.9,12.5-3.4l52.8,30.6v-25.5l-26.9-15.5
		c-4.4-2.5-5.8-8.1-3.3-12.5c2.5-4.4,8.2-5.9,12.5-3.4l17.7,10.3v-35.3c0-5,4-9.1,9-9.1h0.1h0h0h0.1c5,0,9,4.2,9,9.1v35.3l17.7-10.3
		c4.4-2.5,10-1,12.5,3.4c2.5,4.4,1,10-3.3,12.5l-26.9,15.5v25.5l52.8-30.6c4.4-2.5,10-1,12.5,3.4c2.5,4.3,1,10-3.3,12.5l-62,35.8v43
		l45.7-36.3l-4.7,59.9l41.1-23.7v-72.8c0-5,4.1-9.1,9.1-9.1c5,0,9.2,4.1,9.2,9.1l-0.1,62.3l18.3-11v-33c0-5,4.1-9.1,9.1-9.1
		c5,0,9.2,4.1,9.2,9.1v22.4l32.1-18.1c1.4-0.8,3-1.2,4.6-1.2c3.3,0,6.3,1.8,7.9,4.6c2.5,4.4,1,10-3.4,12.5l-32.4,18.7l21.2,12.1
		c4.4,2.5,5.9,8.1,3.3,12.5c-2.5,4.4-8.1,5.9-12.4,3.4l-30.4-17.4l-22.1,12.7l55.5,33c4.4,2.5,5.9,8.1,3.4,12.5
		c-2.5,4.4-8.1,6-12.5,3.4l-64.7-38.3l-37,21.3l53.7,23.7v2.2l-53.7,23.7l37,21.3l64.7-38.3c4.4-2.5,10-1,12.5,3.4
		c2.5,4.4,1,10-3.4,12.5l-55.5,33l22.1,12.7l30.4-17.4c4.4-2.5,9.9-1,12.4,3.4c2.5,4.4,1.1,10-3.3,12.5l-21.2,12.1l32.4,18.7
		c4.4,2.5,5.9,8.1,3.4,12.5c-1.6,2.8-4.7,4.6-7.9,4.6c-1.6,0-3.2-0.4-4.6-1.2l-32.1-18.1v22.4c0,5.1-4.1,9.1-9.2,9.1
		c-5,0-9.1-4.1-9.1-9.1v-33l-18.3-11l0.1,62.3c0,5.1-4.2,9.1-9.2,9.1c-5,0-9.1-4.1-9.1-9.1V1656L1129.9,1632.3L1129.9,1632.3z"/>
	<path class="st3" d="M1702.2,1412.7l4.7,59.9l-45.7-36.3v43l62,35.8c4.4,2.5,5.8,8.2,3.3,12.5c-2.5,4.4-8.1,5.9-12.5,3.4
		l-52.8-30.6v25.5l26.9,15.5c4.4,2.5,5.8,8.1,3.3,12.5c-2.5,4.4-8.2,5.9-12.5,3.4l-17.7-10.3v35.3c0,5-4,9.1-9,9.1h-0.1h0h0h-0.1
		c-5,0-9-4.2-9-9.1v-35.3l-17.7,10.3c-4.4,2.5-10,1-12.5-3.4c-2.5-4.4-1-10,3.3-12.5l26.9-15.5v-25.5l-52.8,30.6
		c-4.4,2.5-10,1-12.5-3.4c-2.5-4.3-1-10,3.3-12.5l62-35.8v-43l-45.7,36.3l4.7-59.9l-41.1,23.7v72.8c0,5-4.1,9.1-9.1,9.1
		c-5,0-9.2-4.1-9.2-9.1l0.1-62.3l-18.3,11v33c0,5-4.1,9.1-9.1,9.1c-5,0-9.2-4.1-9.2-9.1v-22.4l-32.1,18.1c-1.4,0.8-3,1.2-4.6,1.2
		c-3.3,0-6.3-1.8-7.9-4.6c-2.5-4.4-1-10,3.4-12.5l32.4-18.7l-21.2-12.1c-4.4-2.5-5.9-8.1-3.3-12.5c2.5-4.4,8.1-5.9,12.4-3.4
		l30.4,17.4l22.1-12.7l-55.5-33c-4.4-2.5-5.9-8.1-3.4-12.5c2.5-4.4,8.1-6,12.5-3.4l64.7,38.3l37-21.3l-53.7-23.7v-2.2l53.7-23.7
		l-37-21.3l-64.7,38.3c-4.4,2.5-10,1-12.5-3.4c-2.5-4.4-1-10,3.4-12.5l55.5-33l-22.1-12.7l-30.4,17.4c-4.4,2.5-9.9,1-12.4-3.4
		c-2.5-4.4-1.1-10,3.3-12.5l21.2-12.1l-32.4-18.7c-4.4-2.5-5.9-8.1-3.4-12.5c1.6-2.8,4.7-4.6,7.9-4.6c1.6,0,3.2,0.4,4.6,1.2
		l32.1,18.1v-22.4c0-5.1,4.1-9.1,9.2-9.1c5,0,9.1,4.1,9.1,9.1v33l18.3,11l-0.1-62.3c0-5.1,4.2-9.1,9.2-9.1c5,0,9.1,4.1,9.1,9.1v72.8
		l41.1,23.7l-4.7-59.9l45.7,36.3v-43l-62-35.8c-4.4-2.5-5.8-8.2-3.3-12.5c2.5-4.4,8.1-5.9,12.5-3.4l52.8,30.6v-25.5l-26.9-15.5
		c-4.4-2.5-5.8-8.1-3.3-12.5c2.5-4.4,8.2-5.9,12.5-3.4l17.7,10.3v-35.3c0-5,4-9.1,9-9.1h0.1h0h0h0.1c5,0,9,4.2,9,9.1v35.3l17.7-10.3
		c4.4-2.5,10-1,12.5,3.4c2.5,4.4,1,10-3.3,12.5l-26.9,15.5v25.5l52.8-30.6c4.4-2.5,10-1,12.5,3.4c2.5,4.3,1,10-3.3,12.5l-62,35.8v43
		l45.7-36.3l-4.7,59.9l41.1-23.7v-72.8c0-5,4.1-9.1,9.1-9.1c5,0,9.2,4.1,9.2,9.1l-0.1,62.3l18.3-11v-33c0-5,4.1-9.1,9.1-9.1
		c5,0,9.2,4.1,9.2,9.1v22.4l32.1-18.1c1.4-0.8,3-1.2,4.6-1.2c3.3,0,6.3,1.8,7.9,4.6c2.5,4.4,1,10-3.4,12.5l-32.4,18.7l21.2,12.1
		c4.4,2.5,5.9,8.1,3.3,12.5c-2.5,4.4-8.1,5.9-12.4,3.4l-30.4-17.4l-22.1,12.7l55.5,33c4.4,2.5,5.9,8.1,3.4,12.5
		c-2.5,4.4-8.1,6-12.5,3.4l-64.7-38.3l-37,21.3l53.7,23.7v2.2l-53.7,23.7l37,21.3l64.7-38.3c4.4-2.5,10-1,12.5,3.4
		c2.5,4.4,1,10-3.4,12.5l-55.5,33l22.1,12.7l30.4-17.4c4.4-2.5,9.9-1,12.4,3.4c2.5,4.4,1.1,10-3.3,12.5l-21.2,12.1l32.4,18.7
		c4.4,2.5,5.9,8.1,3.4,12.5c-1.6,2.8-4.7,4.6-7.9,4.6c-1.6,0-3.2-0.4-4.6-1.2l-32.1-18.1v22.4c0,5.1-4.1,9.1-9.2,9.1
		c-5,0-9.1-4.1-9.1-9.1v-33l-18.3-11l0.1,62.3c0,5.1-4.2,9.1-9.2,9.1c-5,0-9.1-4.1-9.1-9.1v-72.8L1702.2,1412.7L1702.2,1412.7z"/>
</g>
</svg>
