<svg xmlns="http://www.w3.org/2000/svg" version="1.1" xmlns:xlink="http://www.w3.org/1999/xlink" xmlns:svgjs="http://svgjs.com/svgjs" width="1440" height="560" preserveAspectRatio="none" viewBox="0 0 1440 560"><g mask="url(&quot;#SvgjsMask1002&quot;)" fill="none"><rect width="1440" height="560" x="0" y="0" fill="#0e2a47"></rect><path d="M 0,153 C 57.6,124.2 172.8,2.2 288,9 C 403.2,15.8 460.8,169.4 576,187 C 691.2,204.6 748.8,82.6 864,97 C 979.2,111.4 1036.8,270.8 1152,259 C 1267.2,247.2 1382.4,82.2 1440,38L1440 560L0 560z" fill="#184a7e"></path><path d="M 0,297 C 96,322.8 288,411.6 480,426 C 672,440.4 768,349.4 960,369 C 1152,388.6 1344,493 1440,524L1440 560L0 560z" fill="#2264ab"></path></g><defs><mask id="SvgjsMask1002"><rect width="1440" height="560" fill="#ffffff"></rect></mask></defs></svg>