<svg xmlns="http://www.w3.org/2000/svg" version="1.1" xmlns:xlink="http://www.w3.org/1999/xlink" xmlns:svgjs="http://svgjs.com/svgjs" width="1920" height="1080" preserveAspectRatio="none" viewBox="0 0 1920 1080"><g mask="url(&quot;#SvgjsMask1020&quot;)" fill="none"><rect width="1920" height="1080" x="0" y="0" fill="#0e2a47"></rect><path d="M863.0137029750874 70.73933611527687L1027.9004893612753 114.92061737001899 1072.0817706160174-49.96616901616878 907.1949842298295-94.1474502709109z" fill="rgba(28, 83, 142, 0.4)" class="triangle-float1"></path><path d="M1186.988937754302 296.3827999027L1341.1381896344503 563.3771361078489 1608.132525839599 409.2278842277006 1453.9832739594508 142.2335480225517z" fill="rgba(28, 83, 142, 0.4)" class="triangle-float2"></path><path d="M266.731319710968 780.8208765959524L142.11518100774163 787.351731688216 214.21953299775015 971.0105121969237z" fill="rgba(28, 83, 142, 0.4)" class="triangle-float1"></path><path d="M846.8203477917416 537.0976196805369L617.2526335230014 457.80631397398116 654.1200993707589 666.8921027717449z" fill="rgba(28, 83, 142, 0.4)" class="triangle-float3"></path><path d="M696.7750808220333 180.31342932313515L951.6834646707041 153.76707083103034 823.1822164532449-29.751730674607586z" fill="rgba(28, 83, 142, 0.4)" class="triangle-float2"></path><path d="M1557.563814138984 823.9871374767242L1518.9840175784195 1098.4966538195079 1832.0733304817677 862.5669340372888z" fill="rgba(28, 83, 142, 0.4)" class="triangle-float2"></path><path d="M282.86 521.6 a197.14 197.14 0 1 0 394.28 0 a197.14 197.14 0 1 0 -394.28 0z" fill="rgba(28, 83, 142, 0.4)" class="triangle-float3"></path><path d="M1078.8395237146538 357.79123210767494L896.79339617656 431.3426419447966 970.3448060136816 613.3887694828903 1152.3909335517753 539.8373596457687z" fill="rgba(28, 83, 142, 0.4)" class="triangle-float2"></path><path d="M1478.55 251.59 a287.09 287.09 0 1 0 574.18 0 a287.09 287.09 0 1 0 -574.18 0z" fill="rgba(28, 83, 142, 0.4)" class="triangle-float2"></path><path d="M192.83452295287 838.0144204612998L445.4395066859478 807.2427672443516 314.687354058011 627.277868304572z" fill="rgba(28, 83, 142, 0.4)" class="triangle-float1"></path><path d="M1236.3531782022644 657.462282845366L1212.0072244077844 830.6927453371736 1484.025895042736 780.5964447829897z" fill="rgba(28, 83, 142, 0.4)" class="triangle-float3"></path><path d="M1876.3822935715355 513.4530660614785L1639.733255652394 691.4275624232129 1876.1968491586379 796.7079372833299z" fill="rgba(28, 83, 142, 0.4)" class="triangle-float2"></path><path d="M688.2306230449096 392.2032249932796L635.5581252014827 121.22671468168983 364.5816148898928 173.89921252511687 417.25411273331986 444.87572283670664z" fill="rgba(28, 83, 142, 0.4)" class="triangle-float2"></path><path d="M336.53972226027184 1146.773323472658L564.4365688928231 1094.159190727381 511.82243614754606 866.2623440948296 283.9255895149948 918.8764768401066z" fill="rgba(28, 83, 142, 0.4)" class="triangle-float2"></path><path d="M369.3547540210816 537.4997317059149L555.9480324746946 392.00324674796275 365.5526285878389 311.18519267593626z" fill="rgba(28, 83, 142, 0.4)" class="triangle-float2"></path><path d="M-51.14433729658842 717.6926589419712L113.49196592386451 729.2051507563426 48.44255203519509 476.49445001847755z" fill="rgba(28, 83, 142, 0.4)" class="triangle-float1"></path></g><defs><mask id="SvgjsMask1020"><rect width="1920" height="1080" fill="#ffffff"></rect></mask><style>
            @keyframes float1 {
                0%{transform: translate(0, 0)}
                50%{transform: translate(-10px, 0)}
                100%{transform: translate(0, 0)}
            }

            .triangle-float1 {
                animation: float1 5s infinite;
            }

            @keyframes float2 {
                0%{transform: translate(0, 0)}
                50%{transform: translate(-5px, -5px)}
                100%{transform: translate(0, 0)}
            }

            .triangle-float2 {
                animation: float2 4s infinite;
            }

            @keyframes float3 {
                0%{transform: translate(0, 0)}
                50%{transform: translate(0, -10px)}
                100%{transform: translate(0, 0)}
            }

            .triangle-float3 {
                animation: float3 6s infinite;
            }
        </style></defs></svg>