<?xml version="1.0" encoding="utf-8"?>
<!-- Generator: Adobe Illustrator 26.4.1, SVG Export Plug-In . SVG Version: 6.00 Build 0)  -->
<svg version="1.1" id="Layer_1" xmlns="http://www.w3.org/2000/svg" xmlns:xlink="http://www.w3.org/1999/xlink" x="0px" y="0px"
	 viewBox="0 0 2048 2048" style="enable-background:new 0 0 2048 2048;" xml:space="preserve">
<style type="text/css">
	.st0{fill-rule:evenodd;clip-rule:evenodd;fill:#0E2A47;}
	.st1{fill-rule:evenodd;clip-rule:evenodd;fill:#FFFFFE;}
	.st2{fill:#FFFFFE;}
</style>
<g id="Layer_x0020_1">
	<path class="st0" d="M256,0h1536c141.4,0,256,114.6,256,256v1536c0,141.4-114.6,256-256,256H256c-141.4,0-256-114.6-256-256V256
		C0,114.6,114.6,0,256,0z"/>
	<path class="st1" d="M1430,254.6c41.1,0,80.7,6.6,117.7,18.9c-2.7-0.1-5.4-0.1-8.1-0.1c-146.5,0-265.3,118.8-265.3,265.3
		S1393,804,1539.6,804c132.4,0,242.2-97,262.1-223.9c2.1,16.2,3.2,32.6,3.2,49.4c0,155.2-94.3,288.4-228.8,345.4
		c-14.6-15.6-31.4-29.2-50-40.2c-34.8-20.6-74.4-31.5-114.9-31.5c-7,0-14.1,0.4-21.1,1.1c-16.7-21.6-37.1-40-60.4-54.3
		c-35.6-21.9-76.5-33.4-118.4-33.4c-9.9,0-19.7,0.6-29.4,1.9l-1-3.1c-12.4-39.5-34.2-75.4-63.5-104.7
		c-18.1-18.2-38.7-33.3-60.8-45.2c-1.1-11.8-1.7-23.9-1.7-36C1055,422.4,1222.9,254.6,1430,254.6L1430,254.6z"/>
	<g id="_484288840">
		<path id="_484289608" class="st2" d="M1597.5,1408h-538.9c-53.6,0-102.2-21.8-137.4-57c-35.2-35.2-57-83.8-57-137.4
			c0-49.8,18.7-95.5,49.9-130.1c26.8-29.7,62.8-51.2,103.9-59.9c4.5-45.9,25.1-87.2,56-118.1c35.2-35.2,83.8-57,137.4-57
			c36.7,0,71.6,10.2,101.6,28.7c24.8,15.3,46.2,36.2,62.3,61.5c3-0.6,6-1.1,9.1-1.5c9.1-1.3,18.1-2,26.9-2c35.2,0,69.1,9.6,98.6,27
			c24.5,14.5,45.8,34.4,62.2,58.8c8.9-1.2,17.7-1.8,26.1-1.8c46.1,0,88.7,16.4,122.1,43.8c33.2,27.2,57.4,65.3,67,108.9
			c3.1,13.8,4.7,27.8,4.7,41.7c0,53.5-21.8,102.2-57.1,137.4C1699.7,1386.2,1651.1,1408,1597.5,1408L1597.5,1408z"/>
		<path id="_484289128" class="st2" d="M857.5,1317.5H480c-61.7,0-117.7-25.2-158.3-65.8c-40.6-40.6-65.7-96.6-65.7-158.3
			c0-16.1,1.9-32.2,5.4-48.1c11.1-50.2,39-94.1,77.3-125.5c38.5-31.5,87.5-50.4,140.6-50.4c10.8,0,22,0.8,33.5,2.6
			c19.1-29.3,44.6-53.3,74-70.7l0-0.1c33.9-20,73-31.1,113.7-31.1c10.2,0,20.7,0.8,31.4,2.3c4.5,0.7,9.1,1.5,13.7,2.4
			c18.8-30.8,44.2-56.1,74-74.4c34.6-21.2,74.8-33,117.2-33c61.6,0,117.6,25.2,158.3,65.9c25.3,25.3,44.6,56.6,55.5,91.6
			c-20.8,5.8-40.7,14.6-59,26.1c-14.4,9-27.8,19.7-40,31.9c-31.6,31.6-53.1,71.7-61.9,115.2c-38.1,12.1-72.3,34.1-99.2,64
			c-37.5,41.7-58.1,95.4-58.1,151.5c0,13.5,1.2,26.8,3.5,39.8h0C839.8,1275.8,847.1,1297.4,857.5,1317.5L857.5,1317.5z"/>
	</g>
	<polygon class="st2" points="519.6,403.1 563.7,505.9 666.4,549.9 729.3,576.9 666.4,603.8 563.6,647.9 519.6,750.6 492.7,813.5 
		465.7,750.6 421.7,647.9 318.9,603.8 256,576.9 318.9,549.9 421.7,505.9 465.7,403.1 492.7,340.2 	"/>
	<polygon class="st2" points="891.4,256.9 917,316.6 976.7,342.3 1041.8,370.1 976.7,398 917,423.6 891.4,483.4 863.5,548.4 
		835.7,483.4 810,423.6 750.3,398 685.3,370.1 750.3,342.3 810,316.6 835.7,256.9 863.5,191.9 	"/>
	<polygon class="st2" points="905.9,1593.7 875.7,1664.1 848.3,1728 820.9,1664.1 790.8,1593.7 720.4,1563.6 656.5,1536.2 
		720.4,1508.8 790.8,1478.6 820.9,1408.2 848.3,1344.3 875.7,1408.2 905.9,1478.6 976.2,1508.8 1040.2,1536.2 976.2,1563.6 	"/>
</g>
</svg>
